<?xml version="1.0" encoding="UTF-8" standalone="no"?>
<!DOCTYPE svg PUBLIC "-//W3C//DTD SVG 1.1//EN" "http://www.w3.org/Graphics/SVG/1.1/DTD/svg11.dtd">
<svg width="100%" height="100%" viewBox="0 0 1751 319" version="1.1" xmlns="http://www.w3.org/2000/svg" xmlns:xlink="http://www.w3.org/1999/xlink" xml:space="preserve" xmlns:serif="http://www.serif.com/" style="fill-rule:evenodd;clip-rule:evenodd;stroke-linecap:round;stroke-linejoin:round;stroke-miterlimit:1.5;">
    <g transform="matrix(1,0,0,1,-85.3783,-82.4943)">
        <g transform="matrix(1,0,0,1,-44.7065,0.287608)">
            <g transform="matrix(1,0,0,1,-405.12,2.67442)">
                <g transform="matrix(110,0,0,110,526.08,387.2)">
                    <path d="M0.083,-0L0.083,-0.7L0.217,-0.7L0.515,-0.206L0.444,-0.206L0.737,-0.7L0.87,-0.7L0.872,-0L0.72,-0L0.719,-0.467L0.747,-0.467L0.513,-0.074L0.44,-0.074L0.201,-0.467L0.235,-0.467L0.235,-0L0.083,-0Z" style="fill:white;fill-rule:nonzero;"/>
                </g>
                <g transform="matrix(110,0,0,110,630.91,387.2)">
                    <path d="M0.423,0.012C0.367,0.012 0.316,0.003 0.27,-0.015C0.223,-0.033 0.182,-0.059 0.148,-0.091C0.114,-0.124 0.087,-0.162 0.068,-0.206C0.049,-0.25 0.039,-0.298 0.039,-0.35C0.039,-0.402 0.049,-0.45 0.068,-0.494C0.087,-0.538 0.114,-0.576 0.148,-0.609C0.182,-0.642 0.223,-0.667 0.27,-0.685C0.316,-0.703 0.367,-0.712 0.422,-0.712C0.478,-0.712 0.528,-0.703 0.575,-0.685C0.621,-0.667 0.662,-0.642 0.696,-0.609C0.73,-0.577 0.757,-0.538 0.776,-0.495C0.795,-0.451 0.805,-0.402 0.805,-0.35C0.805,-0.298 0.795,-0.25 0.776,-0.205C0.757,-0.161 0.73,-0.123 0.696,-0.091C0.662,-0.058 0.621,-0.033 0.575,-0.015C0.528,0.003 0.478,0.012 0.423,0.012ZM0.422,-0.126C0.453,-0.126 0.482,-0.131 0.509,-0.142C0.535,-0.153 0.558,-0.168 0.578,-0.188C0.598,-0.208 0.613,-0.232 0.624,-0.259C0.635,-0.287 0.641,-0.317 0.641,-0.35C0.641,-0.383 0.635,-0.414 0.624,-0.441C0.613,-0.468 0.598,-0.492 0.578,-0.512C0.558,-0.532 0.535,-0.547 0.509,-0.558C0.482,-0.569 0.453,-0.574 0.422,-0.574C0.391,-0.574 0.362,-0.569 0.335,-0.558C0.309,-0.547 0.286,-0.532 0.266,-0.512C0.246,-0.492 0.231,-0.468 0.22,-0.441C0.209,-0.413 0.203,-0.383 0.203,-0.35C0.203,-0.317 0.209,-0.287 0.22,-0.259C0.231,-0.232 0.246,-0.208 0.266,-0.188C0.285,-0.168 0.309,-0.153 0.335,-0.142C0.362,-0.131 0.391,-0.126 0.422,-0.126Z" style="fill:white;fill-rule:nonzero;"/>
                </g>
                <g transform="matrix(110,0,0,110,723.53,387.2)">
                    <path d="M0.083,-0L0.083,-0.7L0.217,-0.7L0.63,-0.196L0.565,-0.196L0.565,-0.7L0.725,-0.7L0.725,-0L0.592,-0L0.178,-0.504L0.243,-0.504L0.243,-0L0.083,-0Z" style="fill:white;fill-rule:nonzero;"/>
                </g>
                <g transform="matrix(110,0,0,110,812.19,387.2)">
                    <path d="M0.228,-0.16L0.219,-0.347L0.554,-0.7L0.734,-0.7L0.432,-0.375L0.342,-0.279L0.228,-0.16ZM0.083,-0L0.083,-0.7L0.244,-0.7L0.244,-0L0.083,-0ZM0.562,-0L0.313,-0.305L0.419,-0.42L0.751,-0L0.562,-0Z" style="fill:white;fill-rule:nonzero;"/>
                </g>
                <g transform="matrix(110,0,0,110,893.37,387.2)">
                    <path d="M0.232,-0.418L0.569,-0.418L0.569,-0.292L0.232,-0.292L0.232,-0.418ZM0.244,-0.13L0.625,-0.13L0.625,-0L0.083,-0L0.083,-0.7L0.612,-0.7L0.612,-0.57L0.244,-0.57L0.244,-0.13Z" style="fill:white;fill-rule:nonzero;"/>
                </g>
                <g transform="matrix(110,0,0,110,965.86,387.2)">
                    <path d="M0.257,-0L0.257,-0.286L0.294,-0.188L-0.014,-0.7L0.158,-0.7L0.394,-0.307L0.295,-0.307L0.532,-0.7L0.691,-0.7L0.383,-0.188L0.419,-0.286L0.419,-0L0.257,-0Z" style="fill:white;fill-rule:nonzero;"/>
                </g>
                <g transform="matrix(110,0,0,110,1037.8,387.2)">
                    <path d="M0.083,-0L0.083,-0.7L0.425,-0.7C0.513,-0.7 0.579,-0.683 0.624,-0.65C0.668,-0.617 0.69,-0.573 0.69,-0.518C0.69,-0.481 0.681,-0.449 0.663,-0.423C0.645,-0.396 0.621,-0.375 0.589,-0.36C0.558,-0.345 0.522,-0.338 0.481,-0.338L0.5,-0.379C0.544,-0.379 0.583,-0.372 0.617,-0.357C0.651,-0.343 0.677,-0.322 0.696,-0.294C0.716,-0.266 0.725,-0.231 0.725,-0.191C0.725,-0.131 0.702,-0.084 0.654,-0.05C0.607,-0.017 0.537,-0 0.445,-0L0.083,-0ZM0.244,-0.122L0.433,-0.122C0.475,-0.122 0.507,-0.129 0.529,-0.142C0.551,-0.156 0.562,-0.178 0.562,-0.208C0.562,-0.238 0.551,-0.26 0.529,-0.274C0.507,-0.288 0.475,-0.295 0.433,-0.295L0.232,-0.295L0.232,-0.413L0.405,-0.413C0.445,-0.413 0.475,-0.42 0.496,-0.434C0.516,-0.447 0.527,-0.468 0.527,-0.496C0.527,-0.523 0.516,-0.544 0.496,-0.558C0.475,-0.572 0.445,-0.578 0.405,-0.578L0.244,-0.578L0.244,-0.122Z" style="fill:white;fill-rule:nonzero;"/>
                </g>
                <g transform="matrix(110,0,0,110,1121.73,387.2)">
                    <path d="M0.394,0.012C0.295,0.012 0.217,-0.016 0.161,-0.071C0.105,-0.126 0.077,-0.205 0.077,-0.308L0.077,-0.7L0.239,-0.7L0.239,-0.314C0.239,-0.247 0.253,-0.199 0.28,-0.17C0.308,-0.14 0.346,-0.126 0.395,-0.126C0.445,-0.126 0.483,-0.14 0.51,-0.17C0.537,-0.199 0.551,-0.247 0.551,-0.314L0.551,-0.7L0.711,-0.7L0.711,-0.308C0.711,-0.205 0.683,-0.126 0.627,-0.071C0.571,-0.016 0.493,0.012 0.394,0.012Z" style="fill:white;fill-rule:nonzero;"/>
                </g>
                <g transform="matrix(110,0,0,110,1208.19,387.2)">
                    <path d="M0.313,0.012C0.257,0.012 0.204,0.004 0.152,-0.011C0.101,-0.026 0.059,-0.045 0.028,-0.069L0.083,-0.191C0.113,-0.17 0.148,-0.152 0.189,-0.139C0.231,-0.125 0.272,-0.118 0.314,-0.118C0.346,-0.118 0.372,-0.121 0.392,-0.128C0.412,-0.134 0.426,-0.143 0.435,-0.154C0.444,-0.166 0.449,-0.179 0.449,-0.193C0.449,-0.212 0.442,-0.227 0.427,-0.238C0.412,-0.249 0.393,-0.258 0.369,-0.265C0.345,-0.272 0.318,-0.279 0.289,-0.285C0.26,-0.291 0.231,-0.299 0.202,-0.308C0.173,-0.317 0.147,-0.329 0.123,-0.344C0.099,-0.359 0.079,-0.378 0.064,-0.402C0.05,-0.426 0.042,-0.457 0.042,-0.494C0.042,-0.534 0.053,-0.57 0.074,-0.603C0.096,-0.636 0.129,-0.662 0.172,-0.682C0.216,-0.702 0.271,-0.712 0.337,-0.712C0.381,-0.712 0.424,-0.707 0.467,-0.696C0.51,-0.686 0.548,-0.67 0.58,-0.65L0.53,-0.527C0.497,-0.546 0.465,-0.56 0.432,-0.569C0.399,-0.577 0.367,-0.582 0.336,-0.582C0.304,-0.582 0.279,-0.578 0.259,-0.571C0.239,-0.564 0.225,-0.554 0.216,-0.542C0.207,-0.53 0.203,-0.517 0.203,-0.502C0.203,-0.484 0.21,-0.469 0.225,-0.458C0.24,-0.447 0.259,-0.438 0.283,-0.432C0.307,-0.425 0.334,-0.418 0.363,-0.412C0.392,-0.406 0.421,-0.398 0.45,-0.389C0.479,-0.38 0.505,-0.368 0.529,-0.354C0.553,-0.339 0.573,-0.32 0.587,-0.296C0.602,-0.272 0.61,-0.242 0.61,-0.205C0.61,-0.166 0.599,-0.13 0.577,-0.097C0.555,-0.064 0.523,-0.038 0.479,-0.018C0.435,0.002 0.38,0.012 0.313,0.012Z" style="fill:white;fill-rule:nonzero;"/>
                </g>
                <g transform="matrix(110,0,0,110,1278.15,387.2)">
                    <rect x="0.083" y="-0.7" width="0.162" height="0.7" style="fill:white;fill-rule:nonzero;"/>
                </g>
                <g transform="matrix(110,0,0,110,1314.01,387.2)">
                    <path d="M0.083,-0L0.083,-0.7L0.217,-0.7L0.63,-0.196L0.565,-0.196L0.565,-0.7L0.725,-0.7L0.725,-0L0.592,-0L0.178,-0.504L0.243,-0.504L0.243,-0L0.083,-0Z" style="fill:white;fill-rule:nonzero;"/>
                </g>
                <g transform="matrix(110,0,0,110,1402.67,387.2)">
                    <path d="M0.232,-0.418L0.569,-0.418L0.569,-0.292L0.232,-0.292L0.232,-0.418ZM0.244,-0.13L0.625,-0.13L0.625,-0L0.083,-0L0.083,-0.7L0.612,-0.7L0.612,-0.57L0.244,-0.57L0.244,-0.13Z" style="fill:white;fill-rule:nonzero;"/>
                </g>
                <g transform="matrix(110,0,0,110,1476.26,387.2)">
                    <path d="M0.313,0.012C0.257,0.012 0.204,0.004 0.152,-0.011C0.101,-0.026 0.059,-0.045 0.028,-0.069L0.083,-0.191C0.113,-0.17 0.148,-0.152 0.189,-0.139C0.231,-0.125 0.272,-0.118 0.314,-0.118C0.346,-0.118 0.372,-0.121 0.392,-0.128C0.412,-0.134 0.426,-0.143 0.435,-0.154C0.444,-0.166 0.449,-0.179 0.449,-0.193C0.449,-0.212 0.442,-0.227 0.427,-0.238C0.412,-0.249 0.393,-0.258 0.369,-0.265C0.345,-0.272 0.318,-0.279 0.289,-0.285C0.26,-0.291 0.231,-0.299 0.202,-0.308C0.173,-0.317 0.147,-0.329 0.123,-0.344C0.099,-0.359 0.079,-0.378 0.064,-0.402C0.05,-0.426 0.042,-0.457 0.042,-0.494C0.042,-0.534 0.053,-0.57 0.074,-0.603C0.096,-0.636 0.129,-0.662 0.172,-0.682C0.216,-0.702 0.271,-0.712 0.337,-0.712C0.381,-0.712 0.424,-0.707 0.467,-0.696C0.51,-0.686 0.548,-0.67 0.58,-0.65L0.53,-0.527C0.497,-0.546 0.465,-0.56 0.432,-0.569C0.399,-0.577 0.367,-0.582 0.336,-0.582C0.304,-0.582 0.279,-0.578 0.259,-0.571C0.239,-0.564 0.225,-0.554 0.216,-0.542C0.207,-0.53 0.203,-0.517 0.203,-0.502C0.203,-0.484 0.21,-0.469 0.225,-0.458C0.24,-0.447 0.259,-0.438 0.283,-0.432C0.307,-0.425 0.334,-0.418 0.363,-0.412C0.392,-0.406 0.421,-0.398 0.45,-0.389C0.479,-0.38 0.505,-0.368 0.529,-0.354C0.553,-0.339 0.573,-0.32 0.587,-0.296C0.602,-0.272 0.61,-0.242 0.61,-0.205C0.61,-0.166 0.599,-0.13 0.577,-0.097C0.555,-0.064 0.523,-0.038 0.479,-0.018C0.435,0.002 0.38,0.012 0.313,0.012Z" style="fill:white;fill-rule:nonzero;"/>
                </g>
                <g transform="matrix(110,0,0,110,1546.22,387.2)">
                    <path d="M0.313,0.012C0.257,0.012 0.204,0.004 0.152,-0.011C0.101,-0.026 0.059,-0.045 0.028,-0.069L0.083,-0.191C0.113,-0.17 0.148,-0.152 0.189,-0.139C0.231,-0.125 0.272,-0.118 0.314,-0.118C0.346,-0.118 0.372,-0.121 0.392,-0.128C0.412,-0.134 0.426,-0.143 0.435,-0.154C0.444,-0.166 0.449,-0.179 0.449,-0.193C0.449,-0.212 0.442,-0.227 0.427,-0.238C0.412,-0.249 0.393,-0.258 0.369,-0.265C0.345,-0.272 0.318,-0.279 0.289,-0.285C0.26,-0.291 0.231,-0.299 0.202,-0.308C0.173,-0.317 0.147,-0.329 0.123,-0.344C0.099,-0.359 0.079,-0.378 0.064,-0.402C0.05,-0.426 0.042,-0.457 0.042,-0.494C0.042,-0.534 0.053,-0.57 0.074,-0.603C0.096,-0.636 0.129,-0.662 0.172,-0.682C0.216,-0.702 0.271,-0.712 0.337,-0.712C0.381,-0.712 0.424,-0.707 0.467,-0.696C0.51,-0.686 0.548,-0.67 0.58,-0.65L0.53,-0.527C0.497,-0.546 0.465,-0.56 0.432,-0.569C0.399,-0.577 0.367,-0.582 0.336,-0.582C0.304,-0.582 0.279,-0.578 0.259,-0.571C0.239,-0.564 0.225,-0.554 0.216,-0.542C0.207,-0.53 0.203,-0.517 0.203,-0.502C0.203,-0.484 0.21,-0.469 0.225,-0.458C0.24,-0.447 0.259,-0.438 0.283,-0.432C0.307,-0.425 0.334,-0.418 0.363,-0.412C0.392,-0.406 0.421,-0.398 0.45,-0.389C0.479,-0.38 0.505,-0.368 0.529,-0.354C0.553,-0.339 0.573,-0.32 0.587,-0.296C0.602,-0.272 0.61,-0.242 0.61,-0.205C0.61,-0.166 0.599,-0.13 0.577,-0.097C0.555,-0.064 0.523,-0.038 0.479,-0.018C0.435,0.002 0.38,0.012 0.313,0.012Z" style="fill:white;fill-rule:nonzero;"/>
                </g>
                <g transform="matrix(110,0,0,110,1618.38,387.2)">
                    <path d="M0.131,0.008C0.104,0.008 0.081,-0.002 0.062,-0.02C0.043,-0.038 0.034,-0.061 0.034,-0.09C0.034,-0.119 0.043,-0.142 0.062,-0.16C0.081,-0.178 0.104,-0.186 0.131,-0.186C0.158,-0.186 0.181,-0.178 0.2,-0.16C0.219,-0.142 0.228,-0.119 0.228,-0.09C0.228,-0.061 0.219,-0.038 0.2,-0.02C0.181,-0.002 0.158,0.008 0.131,0.008Z" style="fill:white;fill-rule:nonzero;"/>
                </g>
                <g transform="matrix(110,0,0,110,1644.78,387.2)">
                    <path d="M0.303,0.008C0.253,0.008 0.207,-0.004 0.166,-0.027C0.126,-0.049 0.093,-0.081 0.07,-0.123C0.046,-0.164 0.034,-0.213 0.034,-0.269C0.034,-0.325 0.046,-0.374 0.07,-0.416C0.093,-0.457 0.126,-0.489 0.166,-0.512C0.207,-0.534 0.253,-0.546 0.303,-0.546C0.348,-0.546 0.388,-0.536 0.422,-0.516C0.456,-0.496 0.482,-0.465 0.501,-0.425C0.52,-0.384 0.529,-0.332 0.529,-0.269C0.529,-0.206 0.52,-0.154 0.502,-0.113C0.484,-0.072 0.458,-0.042 0.424,-0.022C0.391,-0.002 0.35,0.008 0.303,0.008ZM0.33,-0.12C0.355,-0.12 0.379,-0.126 0.399,-0.138C0.42,-0.15 0.436,-0.167 0.448,-0.189C0.461,-0.212 0.467,-0.239 0.467,-0.269C0.467,-0.3 0.461,-0.327 0.448,-0.349C0.436,-0.371 0.42,-0.388 0.399,-0.4C0.379,-0.412 0.355,-0.418 0.33,-0.418C0.304,-0.418 0.28,-0.412 0.26,-0.4C0.239,-0.388 0.223,-0.371 0.211,-0.349C0.198,-0.327 0.192,-0.3 0.192,-0.269C0.192,-0.239 0.198,-0.212 0.211,-0.189C0.223,-0.167 0.239,-0.15 0.26,-0.138C0.28,-0.126 0.304,-0.12 0.33,-0.12ZM0.471,-0L0.471,-0.11L0.474,-0.27L0.464,-0.429L0.464,-0.742L0.62,-0.742L0.62,-0L0.471,-0Z" style="fill:white;fill-rule:nonzero;"/>
                </g>
                <g transform="matrix(110,0,0,110,1720.68,387.2)">
                    <path d="M0.339,0.008C0.277,0.008 0.224,-0.004 0.178,-0.028C0.131,-0.052 0.096,-0.085 0.07,-0.127C0.045,-0.168 0.032,-0.216 0.032,-0.269C0.032,-0.323 0.045,-0.371 0.07,-0.412C0.094,-0.454 0.129,-0.487 0.172,-0.51C0.215,-0.534 0.264,-0.546 0.319,-0.546C0.372,-0.546 0.419,-0.534 0.461,-0.512C0.504,-0.49 0.537,-0.458 0.562,-0.416C0.586,-0.375 0.599,-0.325 0.599,-0.267C0.599,-0.261 0.599,-0.254 0.598,-0.246C0.598,-0.239 0.597,-0.232 0.596,-0.225L0.159,-0.225L0.159,-0.316L0.514,-0.316L0.454,-0.289C0.454,-0.317 0.448,-0.341 0.437,-0.362C0.425,-0.383 0.41,-0.399 0.39,-0.411C0.37,-0.422 0.346,-0.428 0.32,-0.428C0.293,-0.428 0.27,-0.422 0.249,-0.411C0.229,-0.399 0.213,-0.383 0.202,-0.362C0.191,-0.341 0.185,-0.316 0.185,-0.287L0.185,-0.263C0.185,-0.233 0.192,-0.208 0.205,-0.186C0.218,-0.163 0.236,-0.146 0.26,-0.135C0.284,-0.123 0.311,-0.117 0.343,-0.117C0.372,-0.117 0.397,-0.121 0.418,-0.13C0.44,-0.138 0.46,-0.151 0.478,-0.169L0.561,-0.079C0.536,-0.051 0.505,-0.029 0.468,-0.015C0.431,0 0.388,0.008 0.339,0.008Z" style="fill:white;fill-rule:nonzero;"/>
                </g>
                <g transform="matrix(110,0,0,110,1788.77,387.2)">
                    <path d="M0.218,-0L-0.008,-0.538L0.153,-0.538L0.341,-0.075L0.261,-0.075L0.456,-0.538L0.606,-0.538L0.379,-0L0.218,-0Z" style="fill:white;fill-rule:nonzero;"/>
                </g>
                <g transform="matrix(110,0,0,110,1854.55,387.2)">
                </g>
            </g>
        </g>
        <g transform="matrix(1,0,0,1,-44.7065,0.287608)">
            <g transform="matrix(0.623338,0,0,0.623338,1339.18,-86.8664)">
                <path d="M482.571,348.588C472.59,347.162 485.109,343.397 486.554,342.433C503.77,330.956 544.217,333.431 573.081,347.864C564.531,355.464 536.409,369.404 517.689,377.913C508.68,371.607 487.588,358.622 482.571,348.588Z" style="fill:white;"/>
            </g>
        </g>
        <g transform="matrix(1,0,0,1,-44.7065,0.287608)">
            <g transform="matrix(0.623338,0,0,0.623338,1342.34,-88.4461)">
                <path d="M477.503,351.122C482.52,361.156 503.612,374.141 512.621,380.447C531.341,371.938 559.463,357.998 568.013,350.398C539.148,335.966 498.701,333.49 481.485,344.967C480.04,345.931 467.521,349.696 477.503,351.122Z" style="fill:none;stroke:white;stroke-width:23.12px;"/>
            </g>
        </g>
        <g transform="matrix(1,0,0,1,-44.7065,0.287608)">
            <g transform="matrix(0.623338,0,0,0.623338,1344.64,-101.966)">
                <path d="M258.261,541.381C290.423,536.021 303.957,521.389 309.361,553.811C309.925,557.196 313.755,580.177 332.839,589.719C354.456,600.527 358.205,584.382 426.752,578.67C442.972,577.318 442.243,580.234 441.944,581.432C430.775,626.107 428.906,626.12 436.419,671.202C439.529,689.861 473.966,790.53 448.849,794.118C446.659,794.431 447.124,793.772 421.228,795.499" style="fill:none;stroke:white;stroke-width:23.12px;"/>
            </g>
        </g>
        <g transform="matrix(1,0,0,1,-44.7065,0.287608)">
            <g transform="matrix(0.623338,0,0,0.623338,1344.64,-101.966)">
                <path d="M462.66,716.777C488.599,729.747 568.653,724.72 592.481,716.777" style="fill:none;stroke:white;stroke-width:23.12px;"/>
            </g>
        </g>
        <g transform="matrix(1,0,0,1,-44.7065,0.287608)">
            <g transform="matrix(0.623338,0,0,0.623338,1344.64,-101.966)">
                <path d="M777.545,520.665C737.058,540.908 757.139,561.89 719.54,586.957C698.581,600.929 698.643,605.556 673.964,599.386C641.889,591.367 615.392,512.698 596.624,569.003C582.673,610.854 624.382,708.354 592.481,740.256C585.348,747.389 569.995,792.807 588.338,794.118C589.994,794.236 604.047,795.24 609.054,792.737" style="fill:none;stroke:white;stroke-width:23.12px;"/>
            </g>
        </g>
        <g transform="matrix(1,0,0,1,-44.7065,0.287608)">
            <g transform="matrix(0.623338,0,0,0.623338,1344.64,-101.966)">
                <path d="M741.637,722.302C739.248,712.748 716.466,687.931 744.399,673.964C749.923,671.202 755.448,668.44 760.972,665.678C765.034,663.646 774.322,659.003 817.596,669.821C840,675.422 846.963,672.689 847.98,696.061C849.726,736.229 845.721,759.591 729.207,759.591C688.928,759.591 688.919,758.091 653.248,740.256C633.913,730.588 616.487,724.779 613.197,723.683" style="fill:none;stroke:white;stroke-width:23.12px;"/>
            </g>
        </g>
        <g transform="matrix(1,0,0,1,-44.7065,0.287608)">
            <g transform="matrix(0.623338,0,0,0.623338,1339.18,-86.8664)">
                <path d="M455.754,406.036C440.892,391.173 365.716,379.437 407.417,435.038C409.439,437.734 409.76,436.961 411.56,440.563C412.641,442.725 413.082,441.849 433.683,443.425C431.992,458.243 423.848,469.613 423.511,478.947C422.41,509.391 434.571,514.673 437.801,517.903C455.255,519.708 468.472,527.481 481.555,530.777C499.296,535.246 515.272,535.127 527.068,534.734C573.283,533.193 587.047,513.54 609.027,502.55C624.677,494.725 634.778,480.392 626.199,462.857C621.964,454.2 599.212,448.596 597.734,435.086C620.978,426.611 624.093,428.224 644.962,415.703C647.723,414.046 658.34,396.926 611.334,393.574C603.398,380.583 591.968,335.137 578.67,334.22C471.117,326.802 465.63,343.265 462.66,352.174C455.664,373.162 452.394,371.964 450.23,393.606" style="fill:none;stroke:white;stroke-width:23.12px;"/>
            </g>
        </g>
        <g transform="matrix(1,0,0,1,-44.7065,0.287608)">
            <g transform="matrix(0.623338,0,0,0.623338,1339.18,-86.8664)">
                <path d="M495.685,419.725L496.59,419.725" style="fill:none;stroke:white;stroke-width:23.12px;"/>
            </g>
        </g>
        <g transform="matrix(1,0,0,1,-44.7065,0.287608)">
            <g transform="matrix(0.623338,0,0,0.623338,1339.18,-86.8664)">
                <path d="M551.801,421.082L550.896,421.082" style="fill:none;stroke:white;stroke-width:23.12px;"/>
            </g>
        </g>
        <g transform="matrix(1,0,0,1,-44.7065,0.287608)">
            <g transform="matrix(0.623338,0,0,0.623338,1339.18,-86.8664)">
                <path d="M486.853,472.906C505.763,479.21 505.989,477.79 525.523,472.906C547.638,467.378 547.52,469.605 564.194,467.382" style="fill:none;stroke:white;stroke-width:23.12px;"/>
            </g>
        </g>
        <g transform="matrix(1,0,0,1,-44.7065,0.287608)">
            <g transform="matrix(0.623338,0,0,0.477216,1337.5,-37.7929)">
                <path d="M439.553,349.019C445.465,325.373 450.173,281.981 452.151,260.227C456.018,263.04 492.537,289.599 498.997,297.35C515.573,280.774 522.258,281.765 533.468,259.343C537.455,251.369 571.527,297.299 572.359,296.467C577.451,291.375 590.927,284.525 593.573,280.557C594.433,279.266 599.76,271.276 607.715,267.298C612.907,264.702 607.486,258.795 612.795,327.806C613.261,333.868 616.337,337.681 610.143,337.528C579.022,336.76 459.559,343.618 439.553,349.019Z" style="fill:rgb(255,189,11);"/>
            </g>
        </g>
        <g transform="matrix(1,0,0,1,-44.7065,0.287608)">
            <g transform="matrix(0.623338,0,0,0.477216,1333.17,-46.4545)">
                <path d="M446.504,367.169C466.51,361.768 585.973,354.91 617.094,355.679C623.288,355.832 620.213,352.019 619.746,345.956C614.438,276.945 619.858,282.852 614.666,285.449C606.711,289.426 601.384,297.417 600.524,298.707C597.878,302.675 584.402,309.526 579.31,314.617C578.478,315.449 544.406,269.519 540.419,277.494C529.209,299.915 522.524,298.924 505.948,315.501C499.489,307.75 462.969,281.19 459.102,278.377C457.124,300.131 452.416,343.523 446.504,367.169Z" style="fill:none;stroke:rgb(255,189,11);stroke-width:11.96px;"/>
            </g>
        </g>
    </g>
</svg>
